<?xml version="1.0" encoding="utf-8"?>
<!-- Generator: Adobe Illustrator 19.1.0, SVG Export Plug-In . SVG Version: 6.00 Build 0)  -->
<svg version="1.1" id="Layer_1" xmlns="http://www.w3.org/2000/svg" xmlns:xlink="http://www.w3.org/1999/xlink" x="0px" y="0px"
	 viewBox="0 0 90.5 34.4" style="enable-background:new 0 0 90.5 34.4;" xml:space="preserve">
<style type="text/css">
	.st0{fill:#FFFFFF;}
	.st1{fill:#752F8A;}
	.st2{font-family:'Gotham-Bold';}
	.st3{font-size:11.8136px;}
	.st4{fill-rule:evenodd;clip-rule:evenodd;fill:#FFFFFF;}
</style>
<path class="st0" d="M36.3,14.7H1.7c-1,0-1.7-0.8-1.7-1.7V1.7C0,0.8,0.8,0,1.7,0h34.5c1,0,1.7,0.8,1.7,1.7v11.2
	C38,13.9,37.2,14.7,36.3,14.7z"/>
<g>
	<text transform="matrix(1 0 0 1 5.0946 11.7036)" class="st1 st2 st3">beta</text>
</g>
<path class="st4" d="M26.6,30.9V25h-1.4v-2.2h1.4v-3.1h2.6v3.1h3V25h-3v5.5c0,1,0.5,1.4,1.4,1.4c0.6,0,1.1-0.1,1.6-0.4v2.1
	c-0.6,0.4-1.4,0.6-2.3,0.6C27.9,34.2,26.6,33.3,26.6,30.9"/>
<path class="st4" d="M51.9,23h2.6v1.7c0.7-1.1,1.8-2,3.5-2c2.5,0,4,1.7,4,4.3v7.1h-2.6v-6.3c0-1.7-0.9-2.7-2.4-2.7
	c-1.5,0-2.5,1-2.5,2.8v6.3h-2.6V23z"/>
<path class="st4" d="M63.7,32.7l1.1-1.7c1.2,0.9,2.5,1.4,3.7,1.4c1.1,0,1.7-0.5,1.7-1.2v0c0-0.9-1.2-1.2-2.5-1.6
	c-1.7-0.5-3.5-1.1-3.5-3.3v0c0-2.1,1.8-3.4,4-3.4c1.4,0,2.9,0.5,4.1,1.3l-1,1.8c-1.1-0.7-2.2-1.1-3.2-1.1c-1,0-1.6,0.5-1.6,1.1v0
	c0,0.8,1.2,1.1,2.5,1.6c1.6,0.5,3.5,1.2,3.5,3.3v0c0,2.3-1.8,3.5-4.2,3.5C66.9,34.4,65.1,33.8,63.7,32.7"/>
<polygon class="st4" points="73.5,23 76.2,23 78.4,30.6 80.9,22.9 83.1,22.9 85.6,30.6 87.9,23 90.5,23 86.8,34.2 84.5,34.2 
	82,26.6 79.5,34.2 77.2,34.2 "/>
<rect x="46.4" y="31.3" class="st4" width="2.8" height="2.9"/>
<path class="st4" d="M41.3,34.1v-1.4c-0.8,0.9-1.9,1.6-3.6,1.6c-2.1,0-4-1.2-4-3.4v0c0-2.5,1.9-3.7,4.5-3.7c1.4,0,2.2,0.2,3.1,0.5
	v-0.2c0-1.5-1-2.4-2.8-2.4c-1.3,0-2.2,0.3-3.2,0.7l-0.7-2.1c1.2-0.5,2.4-0.9,4.3-0.9c3.3,0,4.9,1.7,4.9,4.7v6.6H41.3z M41.3,29.5
	c-0.7-0.3-1.6-0.4-2.6-0.4c-1.6,0-2.6,0.7-2.6,1.7v0c0,1.1,1,1.7,2.2,1.7c1.7,0,3-1,3-2.3V29.5z"/>
<path class="st4" d="M21.4,34.1v-1.4c-0.8,0.9-1.9,1.6-3.6,1.6c-2.1,0-4-1.2-4-3.4v0c0-2.5,1.9-3.7,4.5-3.7c1.4,0,2.2,0.2,3.1,0.5
	v-0.2c0-1.5-1-2.4-2.8-2.4c-1.3,0-2.2,0.3-3.2,0.7l-0.7-2.1c1.2-0.5,2.4-0.9,4.3-0.9c3.3,0,4.9,1.7,4.9,4.7v6.6H21.4z M21.5,29.5
	c-0.7-0.3-1.6-0.4-2.6-0.4c-1.6,0-2.6,0.7-2.6,1.7v0c0,1.1,1,1.7,2.2,1.7c1.7,0,3-1,3-2.3V29.5z"/>
<path class="st4" d="M0,28.6L0,28.6c0-3.7,2.5-5.8,5.2-5.8c1.8,0,3,0.9,3.8,2v-6h2.6v15.4H9v-1.9c-0.8,1.2-2,2.1-3.8,2.1
	C2.6,34.4,0,32.3,0,28.6 M9.1,28.6L9.1,28.6c0-2.2-1.5-3.6-3.2-3.6c-1.8,0-3.2,1.4-3.2,3.6v0c0,2.2,1.5,3.6,3.2,3.6
	C7.5,32.2,9.1,30.7,9.1,28.6"/>
</svg>
