<?xml version="1.0" encoding="utf-8"?>
<!-- Generator: Adobe Illustrator 19.1.0, SVG Export Plug-In . SVG Version: 6.00 Build 0)  -->
<svg version="1.1" id="Layer_1" xmlns="http://www.w3.org/2000/svg" xmlns:xlink="http://www.w3.org/1999/xlink" x="0px" y="0px"
	 viewBox="0 0 90.5 33" style="enable-background:new 0 0 90.5 33;" xml:space="preserve">
<style type="text/css">
	.st0{fill:#752F8A;}
	.st1{fill:#FFFFFF;}
	.st2{font-family:'Gotham-Bold';}
	.st3{font-size:11.8136px;}
	.st4{enable-background:new    ;}
	.st5{clip-path:url(#SVGID_2_);}
	.st6{clip-path:url(#SVGID_6_);}
	.st7{clip-path:url(#SVGID_10_);}
	.st8{clip-path:url(#SVGID_14_);}
	.st9{fill-rule:evenodd;clip-rule:evenodd;fill:#202E60;}
	.st10{fill-rule:evenodd;clip-rule:evenodd;fill:#752E89;}
</style>
<g>
	<path class="st0" d="M36.3,14.7H1.7c-1,0-1.7-0.8-1.7-1.7V1.7C0,0.8,0.8,0,1.7,0h34.5c1,0,1.7,0.8,1.7,1.7v11.2
		C38,13.9,37.2,14.7,36.3,14.7z"/>
	<text transform="matrix(1 0 0 1 5.0946 11.7036)" class="st1 st2 st3">beta</text>
	<g class="st4">
		<g>
			<g>
				<defs>
					<path id="SVGID_1_" d="M0,27.2L0,27.2c0-3.7,2.5-5.8,5.2-5.8c1.8,0,3,0.9,3.8,2v-6h2.6v15.4H9v-1.9C8.2,32.1,7,33,5.2,33
						C2.6,33,0,30.9,0,27.2 M9.1,27.2L9.1,27.2c0-2.2-1.5-3.6-3.2-3.6c-1.8,0-3.2,1.4-3.2,3.6v0c0,2.2,1.5,3.6,3.2,3.6
						C7.5,30.8,9.1,29.3,9.1,27.2"/>
				</defs>
				<use xlink:href="#SVGID_1_"  style="overflow:visible;fill-rule:evenodd;clip-rule:evenodd;fill:#202E60;"/>
				<clipPath id="SVGID_2_">
					<use xlink:href="#SVGID_1_"  style="overflow:visible;"/>
				</clipPath>
				<g class="st5">
					<defs>
						<rect id="SVGID_3_" x="0" y="16.6" width="11.8" height="16.7"/>
					</defs>
					<clipPath id="SVGID_4_">
						<use xlink:href="#SVGID_3_"  style="overflow:visible;"/>
					</clipPath>
				</g>
			</g>
		</g>
	</g>
	<g>
		<defs>
			<path id="SVGID_5_" d="M21.4,32.8v-1.4c-0.8,0.9-1.9,1.6-3.6,1.6c-2.1,0-4-1.2-4-3.4v0c0-2.5,1.9-3.7,4.5-3.7
				c1.4,0,2.2,0.2,3.1,0.5v-0.2c0-1.5-1-2.4-2.8-2.4c-1.3,0-2.2,0.3-3.2,0.7l-0.7-2.1c1.2-0.5,2.4-0.9,4.3-0.9
				c3.3,0,4.9,1.7,4.9,4.7v6.6H21.4z M21.5,28.1c-0.7-0.3-1.6-0.4-2.6-0.4c-1.6,0-2.6,0.7-2.6,1.7v0c0,1.1,1,1.7,2.2,1.7
				c1.7,0,3-1,3-2.3V28.1z"/>
		</defs>
		<use xlink:href="#SVGID_5_"  style="overflow:visible;fill-rule:evenodd;clip-rule:evenodd;fill:#202E60;"/>
		<clipPath id="SVGID_6_">
			<use xlink:href="#SVGID_5_"  style="overflow:visible;"/>
		</clipPath>
		<g class="st6">
			<defs>
				<rect id="SVGID_7_" x="-33" y="16.6" width="108.3" height="19.7"/>
			</defs>
			<clipPath id="SVGID_8_">
				<use xlink:href="#SVGID_7_"  style="overflow:visible;"/>
			</clipPath>
		</g>
	</g>
	<g>
		<defs>
			<path id="SVGID_9_" d="M41.3,32.8v-1.4c-0.8,0.9-1.9,1.6-3.6,1.6c-2.1,0-4-1.2-4-3.4v0c0-2.5,1.9-3.7,4.5-3.7
				c1.4,0,2.2,0.2,3.1,0.5v-0.2c0-1.5-1-2.4-2.8-2.4c-1.3,0-2.2,0.3-3.2,0.7l-0.7-2.1c1.2-0.5,2.4-0.9,4.3-0.9
				c3.3,0,4.9,1.7,4.9,4.7v6.6H41.3z M41.3,28.1c-0.7-0.3-1.6-0.4-2.6-0.4c-1.6,0-2.6,0.7-2.6,1.7v0c0,1.1,1,1.7,2.2,1.7
				c1.7,0,3-1,3-2.3V28.1z"/>
		</defs>
		<use xlink:href="#SVGID_9_"  style="overflow:visible;fill-rule:evenodd;clip-rule:evenodd;fill:#202E60;"/>
		<clipPath id="SVGID_10_">
			<use xlink:href="#SVGID_9_"  style="overflow:visible;"/>
		</clipPath>
		<g class="st7">
			<defs>
				<rect id="SVGID_11_" x="-13.2" y="16.6" width="108.3" height="19.7"/>
			</defs>
			<use xlink:href="#SVGID_11_"  style="overflow:visible;fill:#202E60;"/>
			<clipPath id="SVGID_12_">
				<use xlink:href="#SVGID_11_"  style="overflow:visible;"/>
			</clipPath>
		</g>
	</g>
	<g>
		<defs>
			<path id="SVGID_13_" d="M26.6,29.5v-5.9h-1.4v-2.2h1.4v-3.1h2.6v3.1h3v2.2h-3v5.5c0,1,0.5,1.4,1.4,1.4c0.6,0,1.1-0.1,1.6-0.4v2.1
				c-0.6,0.4-1.4,0.6-2.3,0.6C27.9,32.8,26.6,32,26.6,29.5"/>
		</defs>
		<use xlink:href="#SVGID_13_"  style="overflow:visible;fill-rule:evenodd;clip-rule:evenodd;fill:#202E60;"/>
		<clipPath id="SVGID_14_">
			<use xlink:href="#SVGID_13_"  style="overflow:visible;"/>
		</clipPath>
		<g class="st8">
			<defs>
				<rect id="SVGID_15_" x="-13" y="16.4" width="108.3" height="19.7"/>
			</defs>
			<clipPath id="SVGID_16_">
				<use xlink:href="#SVGID_15_"  style="overflow:visible;"/>
			</clipPath>
		</g>
	</g>
	<path class="st9" d="M51.9,21.6h2.6v1.7c0.7-1.1,1.8-2,3.5-2c2.5,0,4,1.7,4,4.3v7.1h-2.6v-6.3c0-1.7-0.9-2.7-2.4-2.7
		c-1.5,0-2.5,1-2.5,2.8v6.3h-2.6V21.6z"/>
	<path class="st9" d="M63.7,31.3l1.1-1.7c1.2,0.9,2.5,1.4,3.7,1.4c1.1,0,1.7-0.5,1.7-1.2v0c0-0.9-1.2-1.2-2.5-1.6
		c-1.7-0.5-3.5-1.1-3.5-3.3v0c0-2.1,1.8-3.4,4-3.4c1.4,0,2.9,0.5,4.1,1.3l-1,1.8c-1.1-0.7-2.2-1.1-3.2-1.1c-1,0-1.6,0.5-1.6,1.1v0
		c0,0.8,1.2,1.1,2.5,1.6c1.6,0.5,3.5,1.2,3.5,3.3v0c0,2.3-1.8,3.5-4.2,3.5C66.9,33,65.1,32.4,63.7,31.3"/>
	<polygon class="st9" points="73.5,21.6 76.2,21.6 78.4,29.3 80.9,21.6 83.1,21.6 85.6,29.3 87.9,21.6 90.5,21.6 86.8,32.9 
		84.5,32.9 82,25.2 79.5,32.9 77.2,32.9 	"/>
	<rect x="46.4" y="29.9" class="st10" width="2.8" height="2.9"/>
</g>
</svg>
