<?xml version="1.0" encoding="UTF-8"?>
<svg width="110px" height="33px" viewBox="0 0 110 33" version="1.1" xmlns="http://www.w3.org/2000/svg" xmlns:xlink="http://www.w3.org/1999/xlink">
    <!-- Generator: Sketch 46.2 (44496) - http://www.bohemiancoding.com/sketch -->
    <title>DigitalNSW_BETA</title>
    <desc>Created with Sketch.</desc>
    <defs>
        <polygon id="path-1" points="4.77270558e-16 16.0146667 4.77270558e-16 0.0955555556 11.7688108 0.0955555556 11.7688108 16.0146667"></polygon>
        <polygon id="path-3" points="0 19.9045185 109.287973 19.9045185 109.287973 0.740814815 0 0.740814815"></polygon>
    </defs>
    <g id="Symbols" stroke="none" stroke-width="1" fill="none" fill-rule="evenodd">
        <g id="Heading" transform="translate(-276.000000, -30.000000)">
            <g id="DigitalNSW_BETA">
                <g transform="translate(0.000000, 12.000000)">
                    <g transform="translate(276.000000, 18.000000)">
                        <g id="Logo/digital.nsw" transform="translate(0.000000, 13.000000)">
                            <g>
                                <g id="Group-3" transform="translate(0.000000, 0.645259)">
                                    <mask id="mask-2" fill="white">
                                        <use xlink:href="#path-1"></use>
                                    </mask>
                                    <g id="Clip-2"></g>
                                    <path d="M9.20462162,10.128 L9.20462162,10.0857778 C9.20462162,7.89392593 7.65198649,6.45466667 5.90610811,6.45466667 C4.11637838,6.45466667 2.62989189,7.82948148 2.62989189,10.0857778 L2.62989189,10.128 C2.62989189,12.3205926 4.13867568,13.7591111 5.90610811,13.7591111 C7.65198649,13.7591111 9.20462162,12.2983704 9.20462162,10.128 M-0.000445945946,10.128 L-0.000445945946,10.0857778 C-0.000445945946,6.32577778 2.56522973,4.19911111 5.28178378,4.19911111 C7.15624324,4.19911111 8.34245946,5.14355556 9.16077027,6.19688889 L9.16077027,0.0954074074 L11.7688108,0.0954074074 L11.7688108,15.7783704 L9.16077027,15.7783704 L9.16077027,13.888 C8.32016216,15.0702222 7.13468919,16.0146667 5.28178378,16.0146667 C2.60759459,16.0146667 -0.000445945946,13.888 -0.000445945946,10.128" id="Fill-1" fill="#202E60" mask="url(#mask-2)"></path>
                                </g>
                                <mask id="mask-4" fill="white">
                                    <use xlink:href="#path-3"></use>
                                </mask>
                                <g id="Clip-5"></g>
                                <path d="M14.3163514,16.4237778 L16.9243919,16.4237778 L16.9243919,5.08081481 L14.3163514,5.08081481 L14.3163514,16.4237778 Z M14.2085811,3.34081481 L17.0113514,3.34081481 L17.0113514,0.870444444 L14.2085811,0.870444444 L14.2085811,3.34081481 Z" id="Fill-4" fill="#202E60" mask="url(#mask-4)"></path>
                                <path d="M28.5231486,10.2155556 L28.5231486,10.1718519 C28.5231486,8.30296296 26.9928108,7.03555556 25.1822703,7.03555556 C23.3702432,7.03555556 21.9484189,8.28222222 21.9484189,10.1511111 L21.9484189,10.1933333 C21.9484189,12.062963 23.3932838,13.3303704 25.1822703,13.3303704 C26.9928108,13.3303704 28.5231486,12.0407407 28.5231486,10.2155556 M19.8792297,18.5503704 L20.8499054,16.5955556 C22.0554459,17.3474074 23.3494324,17.7985185 24.9013243,17.7985185 C27.2291622,17.7985185 28.5023378,16.5955556 28.5023378,14.3185185 L28.5023378,13.4385185 C27.552473,14.6622222 26.3684865,15.5214815 24.4917973,15.5214815 C21.8190946,15.5214815 19.3188243,13.5451852 19.3188243,10.2155556 L19.3188243,10.1718519 C19.3188243,6.82074074 21.8406486,4.84444444 24.4917973,4.84444444 C26.4101081,4.84444444 27.5963243,5.72518519 28.4792973,6.77851852 L28.4792973,5.08074074 L31.0873378,5.08074074 L31.0873378,14.102963 C31.0873378,16.0155556 30.5923378,17.4340741 29.6432162,18.3792593 C28.6086216,19.4096296 27.0143649,19.9044444 24.9659865,19.9044444 C23.0900405,19.9044444 21.3449054,19.4318519 19.8792297,18.5503704" id="Fill-6" fill="#202E60" mask="url(#mask-4)"></path>
                                <path d="M33.88,16.4237778 L36.489527,16.4237778 L36.489527,5.08081481 L33.88,5.08081481 L33.88,16.4237778 Z M33.7722297,3.34081481 L36.575,3.34081481 L36.575,0.870444444 L33.7722297,0.870444444 L33.7722297,3.34081481 Z" id="Fill-7" fill="#202E60" mask="url(#mask-4)"></path>
                                <path d="M40.1893176,13.287037 L40.1893176,7.31444444 L38.7451959,7.31444444 L38.7451959,5.08037037 L40.1893176,5.08037037 L40.1893176,1.9662963 L42.7973581,1.9662963 L42.7973581,5.08037037 L45.8580338,5.08037037 L45.8580338,7.31444444 L42.7973581,7.31444444 L42.7973581,12.8788889 C42.7973581,13.8885185 43.3146554,14.2966667 44.1983716,14.2966667 C44.7810743,14.2966667 45.2983716,14.1685185 45.8156689,13.9107407 L45.8156689,16.0366667 C45.1675608,16.4025926 44.4362095,16.6166667 43.4655338,16.6166667 C41.5479662,16.6166667 40.1893176,15.7796296 40.1893176,13.287037" id="Fill-8" fill="#202E60" mask="url(#mask-4)"></path>
                                <path d="M55.3336419,11.6760741 C54.6662095,11.4182963 53.7378986,11.224963 52.7256014,11.224963 C51.08675,11.224963 50.1175608,11.8908889 50.1175608,12.9871852 L50.1175608,13.0294074 C50.1175608,14.1027407 51.08675,14.7057037 52.3153311,14.7057037 C54.0403986,14.7057037 55.3336419,13.7382963 55.3336419,12.3197778 L55.3336419,11.6760741 Z M55.2689797,16.4234815 L55.2689797,15.0279259 C54.4930338,15.9508889 53.3068176,16.6605185 51.5824932,16.6605185 C49.4278311,16.6605185 47.5295878,15.4360741 47.5295878,13.1582963 L47.5295878,13.1145926 C47.5295878,10.602 49.4924932,9.3982963 52.1436419,9.3982963 C53.5231014,9.3982963 54.4068176,9.59237037 55.2905338,9.87162963 L55.2905338,9.65681481 C55.2905338,8.08866667 54.2983041,7.22866667 52.4885068,7.22866667 C51.2168176,7.22866667 50.2684392,7.50792593 49.2331014,7.9382963 L48.5225608,5.85385185 C49.7726959,5.29607407 51.001277,4.90866667 52.8541824,4.90866667 C56.2173581,4.90866667 57.8554662,6.67088889 57.8554662,9.69977778 L57.8554662,16.4234815 L55.2689797,16.4234815 Z" id="Fill-9" fill="#202E60" mask="url(#mask-4)"></path>
                                <polygon id="Fill-10" fill="#202E60" mask="url(#mask-4)" points="60.4345946 16.4237778 63.0426351 16.4237778 63.0426351 0.740814815 60.4345946 0.740814815"></polygon>
                                <polygon id="Fill-11" fill="#752E89" mask="url(#mask-4)" points="64.9825 16.4237778 67.8491892 16.4237778 67.8491892 13.4808148 64.9825 13.4808148"></polygon>
                                <path d="M70.0940068,5.08066667 L72.7020473,5.08066667 L72.7020473,6.84214815 C73.4348851,5.76807407 74.4910338,4.84437037 76.2592095,4.84437037 C78.8233986,4.84437037 80.3106284,6.56288889 80.3106284,9.20511111 L80.3106284,16.4236296 L77.7025878,16.4236296 L77.7025878,9.97844444 C77.7025878,8.2177037 76.8188716,7.20733333 75.267723,7.20733333 C73.7581959,7.20733333 72.7020473,8.25992593 72.7020473,10.0214074 L72.7020473,16.4236296 L70.0940068,16.4236296 L70.0940068,5.08066667 Z" id="Fill-12" fill="#202E60" mask="url(#mask-4)"></path>
                                <path d="M82.1034797,14.9414074 L83.2681419,13.1791852 C84.496723,14.1028889 85.8330743,14.576963 86.99625,14.576963 C88.1178041,14.576963 88.7644257,14.1028889 88.7644257,13.3517778 L88.7644257,13.3095556 C88.7644257,12.4273333 87.5573986,12.1273333 86.2210473,11.7191852 C84.5398311,11.2473333 82.6638851,10.5591852 82.6638851,8.38955556 L82.6638851,8.34585185 C82.6638851,6.19696296 84.4528716,4.88807407 86.7167905,4.88807407 C88.1386149,4.88807407 89.69125,5.38140741 90.898277,6.17622222 L89.8629392,8.02362963 C88.7644257,7.35844444 87.6005068,6.9502963 86.6513851,6.9502963 C85.6390878,6.9502963 85.0571284,7.42288889 85.0571284,8.08881481 L85.0571284,8.13103704 C85.0571284,8.94733333 86.2857095,9.29103704 87.6220608,9.72066667 C89.281723,10.2362222 91.1576689,10.9880741 91.1576689,13.0295556 L91.1576689,13.0725185 C91.1576689,15.456963 89.3040203,16.6391852 86.9315878,16.6391852 C85.3150338,16.6391852 83.5260473,16.0591852 82.1034797,14.9414074" id="Fill-13" fill="#202E60" mask="url(#mask-4)"></path>
                                <polygon id="Fill-14" fill="#202E60" mask="url(#mask-4)" points="92.1074595 5.08066667 94.7801622 5.08066667 97.0648919 12.8584444 99.5867162 5.03696296 101.80827 5.03696296 104.351649 12.8584444 106.679486 5.08066667 109.287527 5.08066667 105.558676 16.5088148 103.230838 16.5088148 100.686716 8.754 98.1217838 16.5088148 95.7932027 16.5088148"></polygon>
                            </g>
                        </g>
                        <g id="BETA">
                            <rect id="Rectangle-8" fill="#752F8A" x="0" y="0" width="30" height="11"></rect>
                            <text font-family="Gotham-Bold, Gotham" font-size="10" font-weight="bold" fill="#FFFFFF">
                                <tspan x="1.3" y="9">BETA</tspan>
                            </text>
                        </g>
                    </g>
                </g>
            </g>
        </g>
    </g>
</svg>