<?xml version="1.0" encoding="UTF-8"?>
<svg width="47px" height="51px" viewBox="0 0 47 51" version="1.1" xmlns="http://www.w3.org/2000/svg" xmlns:xlink="http://www.w3.org/1999/xlink">
    <!-- Generator: Sketch 46.2 (44496) - http://www.bohemiancoding.com/sketch -->
    <title>Logo/NSWGov</title>
    <desc>Created with Sketch.</desc>
    <defs></defs>
    <g id="Symbols" stroke="none" stroke-width="1" fill="none" fill-rule="evenodd">
        <g id="Logo/NSWGov" fill-rule="nonzero">
            <g id="Shape">
                <path d="M13.1,39.3 L5.6,30.5 L2.4,30.5 L2.4,44.2 L5.5,44.2 L5.5,35.5 L12.9,44.3 L16.1,44.3 L16.1,30.5 L13,30.5 L13.1,39.3 Z M42.7,30.5 L40.7,39.3 L38.6,30.5 L35.6,30.5 L33.4,39.2 L31.4,30.5 L28.2,30.5 L31.8,44.2 L35,44.2 L37.1,35.5 L39.2,44.2 L42.3,44.2 L42.3,44.1 L45.9,30.5 L42.7,30.5 Z M2.2,48.4 C2.2,47.2 3.1,46.2 4.3,46.2 C4.3,46.2 4.3,46.2 4.4,46.2 C5,46.2 5.6,46.4 6,46.8 L5.5,47.4 C5.2,47.1 4.8,46.9 4.3,46.9 C3.5,46.9 2.9,47.6 3,48.4 L3,48.4 C3,49.2 3.5,49.9 4.3,49.9 L4.4,49.9 C4.8,49.9 5.1,49.8 5.4,49.6 L5.4,48.8 L4.3,48.8 L4.3,48.1 L6.1,48.1 L6.1,49.9 C5.6,50.3 5,50.6 4.3,50.6 C3.1,50.7 2.2,49.7 2.1,48.6 C2.2,48.5 2.2,48.5 2.2,48.4 L2.2,48.4 Z M6.6,48.4 C6.6,47.2 7.6,46.2 8.8,46.2 C10,46.2 11,47.2 11,48.4 L11,48.4 C11,49.6 10,50.6 8.8,50.6 C7.6,50.6 6.6,49.6 6.6,48.4 L6.6,48.4 Z M10.3,48.4 C10.3,47.6 9.7,46.9 8.9,46.9 C8.9,46.9 8.9,46.9 8.8,46.9 C8,46.9 7.4,47.5 7.4,48.3 C7.4,48.3 7.4,48.3 7.4,48.4 L7.4,48.4 C7.3,49.2 7.9,49.9 8.7,50 C9.5,50.1 10.2,49.5 10.3,48.7 C10.3,48.5 10.3,48.5 10.3,48.4 L10.3,48.4 Z M11,46.3 L11.8,46.3 L13.1,49.6 L14.4,46.3 L15.2,46.3 L13.4,50.6 L12.8,50.6 L11,46.3 Z M15.7,46.3 L18.8,46.3 L18.8,47 L16.4,47 L16.4,48.1 L18.5,48.1 L18.5,48.8 L16.4,48.8 L16.4,49.9 L18.8,49.9 L18.8,50.6 L15.6,50.6 L15.6,46.3 L15.7,46.3 L15.7,46.3 Z M19.6,46.3 L21.5,46.3 C21.9,46.3 22.4,46.4 22.7,46.7 C22.9,46.9 23.1,47.3 23,47.6 L23,47.6 C23,48.2 22.6,48.8 22,48.9 L23.2,50.5 L22.3,50.5 L21.3,49 L20.4,49 L20.4,50.5 L19.7,50.5 L19.6,46.3 Z M21.4,48.4 C21.9,48.4 22.3,48.1 22.3,47.7 L22.3,47.7 C22.3,47.2 22,47 21.4,47 L20.3,47 L20.3,48.4 L21.4,48.4 L21.4,48.4 Z M23.7,46.3 L24.4,46.3 L26.7,49.2 L26.7,46.3 L27.4,46.3 L27.4,50.5 L26.8,50.5 L24.5,47.5 L24.5,50.5 L23.8,50.5 L23.7,46.3 Z M28.2,46.3 L29,46.3 L30.3,48.3 L31.6,46.3 L32.4,46.3 L32.4,50.5 L31.7,50.5 L31.7,47.5 L30.4,49.5 L30.4,49.5 L29.1,47.5 L29.1,50.5 L28.4,50.5 L28.2,46.3 Z M33.1,46.3 L36.3,46.3 L36.3,47 L33.9,47 L33.9,48.1 L36,48.1 L36,48.8 L33.8,48.8 L33.8,49.9 L36.2,49.9 L36.2,50.6 L33,50.6 L33.1,46.3 Z M37,46.3 L37.7,46.3 L40,49.3 L40,46.3 L40.7,46.3 L40.7,50.5 L40.1,50.5 L37.8,47.5 L37.8,50.5 L37,50.5 L37,46.3 Z M42.6,47 L41.3,47 L41.3,46.3 L44.7,46.3 L44.7,47 L43.4,47 L43.4,50.5 L42.6,50.5 L42.6,47 Z M17.1,42.3 L18.9,40.1 C20,41.2 21.5,41.8 23.1,41.8 C24.4,41.8 25.1,41.3 25.1,40.5 L25.1,40.5 C25.1,39.7 24.6,39.3 22.3,38.7 C19.5,38 17.7,37.2 17.7,34.4 L17.7,34.4 C17.7,31.9 19.7,30.2 22.6,30.2 C24.5,30.2 26.3,30.8 27.8,31.9 L26.2,34.2 C25.2,33.4 23.9,32.9 22.6,32.8 C21.4,32.8 20.8,33.3 20.8,34 L20.8,34 C20.8,34.9 21.4,35.2 23.8,35.8 C26.6,36.5 28.2,37.6 28.2,40 L28.2,40 C28.2,42.8 26.1,44.4 23.1,44.4 C20.8,44.5 18.7,43.8 17.1,42.3 L17.1,42.3 Z" fill="#1F2E61"></path>
                <path d="M9.9,4.4 C9.6,4.4 9.4,4.6 9.4,4.9 C9.4,4.9 9.3,5.4 9.3,6.2 C9.3,7 9.1,8.2 9.1,9.7 C9.1,13 9.5,17.7 11.6,21.3 C13.2,24.1 15.4,25.6 17.9,25.7 C16.6,24.7 15.7,23.4 15.2,21.8 C14.6,19.7 14.3,17.6 14.3,15.4 C14.3,13 14.6,10.7 15,8.4 L15,8.4 C15.1,8 15.4,7.6 15.7,7.4 C14.1,6.4 12.3,5.4 10.6,4.6 L10.2,4.4 C10,4.5 9.9,4.5 9.9,4.4 M31.5,8.3 C31.4,8.3 31.3,8.3 31.3,8.4 C31.2,8.5 31.2,8.5 31.1,8.6 C30.9,8.7 30.8,8.9 30.5,9.1 C29.8,9.7 29.1,10.4 28.4,11.1 C26.5,13.1 25.1,15.5 24.2,18.1 C23.7,19.5 23.5,21 23.4,22.5 C23.4,23.3 23.5,24 23.8,24.7 C24.1,25.3 24.5,25.7 25.1,26 C25.4,26.1 25.7,26.2 26,26.2 L26,26.2 C28.7,26 30.9,24.1 31.6,21.5 C32.2,19.5 32.4,17.5 32.4,15.4 C32.4,13.3 32.2,11.2 31.8,9.1 L31.7,8.6 C31.7,8.4 31.6,8.2 31.5,8.3" fill="#D61E3B"></path>
                <path d="M16.2,8.3 C16,8.3 16,8.5 15.9,8.7 C15.8,8.9 15.9,8.9 15.8,9.2 C15.7,9.5 15.7,10 15.6,10.7 C15.4,12.3 15.3,13.9 15.2,15.5 C15.2,17.5 15.4,19.6 16,21.6 C16.8,24.2 19.1,26.1 21.8,26.3 L21.8,26.3 C22.1,26.3 22.5,26.2 22.8,26.1 C23,26 23.1,26 23.3,25.9 C23.2,25.7 23,25.5 23,25.3 C22.6,24.5 22.4,23.5 22.5,22.6 C22.6,21 22.8,19.5 23.3,18 L23.5,17.5 C23.5,17.4 23.5,17.4 23.6,17.3 C21.7,12.6 17.4,9.1 16.9,8.7 L16.7,8.5 C16.4,8.4 16.3,8.3 16.2,8.3 M23.8,0.6 C23.7,0.6 23.6,0.7 23.5,0.8 L23.3,1.2 C23.1,1.6 22.9,1.9 22.7,2.3 C22,3.5 21.4,4.8 20.8,6.1 C20.3,7.2 19.8,8.4 19.4,9.6 C21.3,11.4 22.8,13.5 23.9,15.9 C25,13.6 26.5,11.5 28.3,9.7 C27.3,6.7 26,3.9 24.4,1.2 L24.2,0.8 C24,0.6 23.9,0.6 23.8,0.6 M37.8,4.5 C37.7,4.5 37.6,4.5 37.5,4.6 L37.1,4.8 C36.9,4.9 36.5,5 36.1,5.2 L35.9,5.3 C34.7,5.9 33.4,6.6 32.3,7.3 C32.2,7.4 32,7.5 31.9,7.5 C32.3,7.7 32.5,8.1 32.6,8.5 L32.6,8.5 C33.1,10.8 33.3,13.1 33.3,15.5 C33.3,17.7 33,19.8 32.5,21.9 C32,23.4 31.1,24.8 29.8,25.8 C32.3,25.7 34.5,24.1 36,21.4 C38.1,17.8 38.5,13.1 38.5,9.8 C38.5,8.6 38.5,7.5 38.3,6.3 C38.2,5.5 38.1,5 38.1,5 C38.2,4.6 38,4.4 37.8,4.5 M31,1.6 L31,1.6 C30.8,1.6 30.7,1.6 30.7,1.7 C30.7,1.7 30.2,2 29.3,2.6 C28.8,2.9 28.1,3.5 27.2,4.2 C27.8,5.5 28.4,6.9 28.9,8.3 C30,7.4 31.2,6.6 32.4,5.9 C32.1,4.6 31.8,3.3 31.4,2 L31.4,2 C31.3,1.9 31.2,1.7 31,1.6 M16.7,1.7 C16.5,1.7 16.3,1.9 16.2,2.1 L16.2,2.1 C15.8,3.4 15.5,4.6 15.2,6 C16.4,6.7 17.6,7.6 18.8,8.5 C19.3,7.1 19.9,5.7 20.5,4.4 C19.8,3.8 19.1,3.3 18.4,2.8 C17.6,2.2 17,1.9 17,1.9 C16.9,1.8 16.9,1.8 16.7,1.7 L16.7,1.7 M4.7,10.6 C4,10.6 3.6,10.6 3.6,10.6 C3.3,10.6 3,10.8 2.9,11 C2.8,11.2 2.7,11.3 2.8,11.5 C2.8,12 3.2,13.8 5.3,16.5 C6.4,16 7.5,15.5 8.5,15.1 C8.3,13.7 8.1,12.2 8.1,10.7 C6.8,10.6 5.7,10.5 5.1,10.5 L4.7,10.6 M42.9,10.6 L42.5,10.6 C41.9,10.6 40.8,10.6 39.5,10.8 C39.5,12.3 39.3,13.7 39.1,15.2 C40.1,15.6 41.2,16.1 42.3,16.6 C44.5,13.9 44.8,12.1 44.8,11.6 C44.8,11.4 44.7,11.2 44.6,11.1 C44.4,10.9 44.2,10.7 43.9,10.7 C44.1,10.6 43.6,10.6 42.9,10.6" fill="#D61E3B"></path>
                <path d="M39,16.1 C38.6,18.1 38,20.1 37,21.9 C36.2,23.5 34.9,24.8 33.4,25.7 C43.6,25.1 46.5,21.9 46.8,21.5 C46.9,21.3 47,21.2 47,21 C47,20.7 46.9,20.4 46.6,20.3 L46.2,20 C46,19.9 45.8,19.7 45.5,19.5 L45.3,19.3 C44.2,18.6 43.1,18 42,17.4 C41,16.9 40,16.5 39,16.1 M8.6,16.1 C6,17.1 3.6,18.4 1.4,20 L1,20.2 C0.8,20.4 0.6,20.7 0.6,20.9 C0.6,21.1 0.7,21.3 0.7,21.4 L0.7,21.4 L0.8,21.5 L0.8,21.5 C0.9,21.6 1,21.7 1.3,22 C2,22.6 2.9,23.1 3.7,23.5 C7,24.8 10.5,25.5 14,25.6 C12.5,24.7 11.3,23.4 10.4,21.8 C9.6,20 9,18.1 8.6,16.1 M37.7,26.4 C36.9,26.4 36,26.5 35.2,26.7 L34.7,26.8 C34,26.9 33.4,26.9 32.7,26.9 L31.1,26.9 L31.1,26.9 L29.4,26.9 C28,26.9 26.5,27 25.1,27.4 C25,27.4 25,27.5 25,27.6 C25,27.6 25.1,27.7 25.2,27.7 L25.3,27.7 C25.9,27.7 26.4,27.6 26.9,27.6 C28.4,27.6 29.8,27.8 31.3,28.2 C32.5,28.6 33.8,28.8 35.1,28.8 C36.3,28.9 37.5,28.6 38.5,27.9 C38.7,27.7 38.8,27.5 38.7,27.3 C38.6,26.6 38.5,26.4 37.7,26.4 M9.9,26.4 C9.2,26.4 9.1,26.6 9,27 C9,27.2 9.1,27.5 9.2,27.6 C10.2,28.3 11.4,28.6 12.6,28.5 C13.9,28.5 15.1,28.3 16.3,27.9 C17.7,27.5 19.2,27.3 20.7,27.3 C21.2,27.3 21.8,27.3 22.3,27.4 L22.4,27.4 C22.5,27.4 22.6,27.4 22.6,27.3 C22.6,27.2 22.6,27.2 22.5,27.1 C21.1,26.8 19.7,26.6 18.2,26.6 L16.5,26.6 L16.5,26.6 L14.9,26.6 C14.2,26.6 13.6,26.6 12.9,26.5 L12.3,26.4 C11.5,26.5 10.7,26.4 9.9,26.4" fill="#D61E3B"></path>
            </g>
        </g>
    </g>
</svg>